<?xml version="1.0" encoding="utf-8"?>
<!-- Generator: Adobe Illustrator 25.0.1, SVG Export Plug-In . SVG Version: 6.00 Build 0)  -->
<svg version="1.0" id="katman_1" xmlns="http://www.w3.org/2000/svg" xmlns:xlink="http://www.w3.org/1999/xlink" x="0px" y="0px"
	 viewBox="0 0 560 400" style="enable-background:new 0 0 560 400;" xml:space="preserve">
<style type="text/css">
	.st0{fill-rule:evenodd;clip-rule:evenodd;fill:#EE3E33;}
	.st1{fill-rule:evenodd;clip-rule:evenodd;fill:#FFFFFF;}
</style>
<g transform="matrix(.73058 0 0 .73058 180 73.0997)">
	<path class="st0" d="M-4.4,139.8C-17.7,92.6-9.9,48.9-9.9-3.9c47.3-23.5,94.1-25.6,144.8-25.6c43.8,0,106,5.7,143.5,25.5
		c3.8,49.8,6,93.7-6.7,150.2c-12.8,56.6-50,134.8-134.9,192.5C44.1,278.1,13.8,204.7-4.4,139.8"/>
	<g>
		<path class="st1" d="M39.8,70.6l-45.6,49.6c10.2,47.6,38.7,147.3,142.2,214.5c102.6-70.6,130.1-167.3,136.3-215.6l-44.4-48.6
			l-49.1,49.8L133.9,71l-45.1,48.7L39.8,70.6z"/>
		<path class="st1" d="M38.3,26.6l5.6,9.5H33.2L38.3,26.6z M25.5,32.2l-3.5,5l7.9-0.6L25.5,32.2z M51.2,32.2l3.9,5l-7.7-1.2
			L51.2,32.2z M60.7,20.2c-0.6,0-1.7-0.4,0-1c1.4,0,3.3,0,5.6,3.5c1.2-0.6,3.9-4.6,6.8-3.5c-0.4,4.3-9.1,20.3-10.3,21.9
			c-3.9-2.3-26.7-3.5-24.6-3.5c1.7,0-21.5,0.6-24.8,3.5c-1-2.3-10.1-17.6-10.1-22.5c2.7-1.2,5.8,2.7,6.8,3.5
			c2.3-3.5,4.5-3.5,5.2-3.5c2.1,0.6,1,1.2,0.4,1.5c-11.2,9.3,5,19.4,8.3,9.3c14.7,1.4,10.8-10.3,7.4-12c-2.7-0.8-1-1,0-1
			c1.2-0.6,2.7-0.6,2.7,0.2c0-6,0.8-10.5,4.1-12.2c3.3,2.1,4.1,6.2,3.3,12.2c0.8-0.8,2.3-0.2,3.5-0.2c0.6,0.2,2.9,0.2,0.6,1.5
			c-4.1,1.2-7.4,13.4,6.8,11.4C55.7,39.6,72.7,28.1,60.7,20.2z"/>
		<path class="st1" d="M21.9,44.4c1.1,0,2.3,0.8,2.3,2.7c0,1.5-1.1,2.7-2.3,2.7c-1.5,0-2.7-1.1-2.7-2.7
			C19.2,45.2,20.4,44.4,21.9,44.4 M30.6,42.5c1.5,0,3,1.1,3,2.6c0,1.9-1.5,2.7-3,2.7c-1.1,0-2.7-0.8-2.7-2.7
			C27.9,43.7,29.5,42.5,30.6,42.5z M39.7,41.8c1.1,0,2.6,1.5,2.6,3c0,1.1-1.5,2.6-2.6,2.6c-1.5,0-2.7-1.5-2.7-2.6
			C37,43.3,38.2,41.8,39.7,41.8z M47.6,42.5c1.5,0,2.7,1.1,2.7,2.6c0,1.5-1.1,2.7-2.7,2.7c-1.5,0-2.6-1.1-2.6-2.7
			C45,43.7,46.1,42.5,47.6,42.5z M56.4,44.4c1.5,0,2.6,1.1,2.6,2.7c0,1.5-1.1,2.7-2.6,2.7c-1.5,0-2.7-1.1-2.7-2.7
			C53.7,45.6,54.8,44.4,56.4,44.4z M19.6,52.4c-1.5-2.7-3.4-7.2-4.5-9.1c4.2-2.7,18.9-3,23.9-3.4c8.3,0,19.3,1.5,23.1,3.4
			c0-0.8-2.3,7.2-3.4,9.5c-6.1-2.3-14.8-2.6-20.1-2.6C32.1,49.7,24.5,50.5,19.6,52.4z"/>
		<path class="st1" d="M39.1,52.3c10.6,0,18.9,1.1,18.9,2.7c0,1.1-8.3,1.9-18.9,1.9c-10.2,0-18.9-0.8-18.9-1.9
			C20.2,53.5,28.9,52.3,39.1,52.3"/>
		<path class="st1" d="M214.7,32.2l-3.5,5l8.7-0.6L214.7,32.2z M227.9,26.6l5.4,9.5h-10.1L227.9,26.6z M241.2,32.2l3.9,5l-7.7-1.2
			L241.2,32.2z M250.7,20.2c-1.2,0-2.3-0.4,0-1c1.2,0,3.5,0,5,3.5c1.2-0.6,4.5-4.6,7.4-3.5c-0.6,4.3-8.9,20.3-10.3,21.9
			c-3.9-2.3-26.9-3.5-25-3.5c2.1,0-20.9,0.6-24.4,3.5c-1-2.3-10.1-17.6-10.7-22.5c3.5-1.2,6.2,2.7,7.4,3.5c2.3-3.5,4.5-3.5,5-3.5
			c1.7,0.6,1.2,1.2,0.6,1.5c-11.8,9.3,5,19.4,7.9,9.3c14.9,1.4,11-10.3,7.4-12c-2.5-0.8-0.6-1,0.2-1c0.8-0.6,3.1-0.6,3.1,0.2
			c0-6,0-10.5,3.5-12.2c3.3,2.1,4.3,6.2,3.9,12.2c0.4-0.8,2.1-0.2,3.3-0.2c0.4,0.2,2.3,0.2,0,1.5c-3.9,1.2-6.8,13.4,7.4,11.4
			C245.1,39.6,262.5,28.1,250.7,20.2z"/>
		<path class="st1" d="M211.7,44.4c1.1,0,2.3,0.8,2.3,2.7c0,1.5-1.1,2.7-2.3,2.7c-1.5,0-2.6-1.1-2.6-2.7
			C209,45.2,210.2,44.4,211.7,44.4 M220.4,42.5c1.5,0,3,1.1,3,2.6c0,1.9-1.5,2.7-3,2.7c-1.1,0-2.7-0.8-2.7-2.7
			C217.7,43.7,219.3,42.5,220.4,42.5z M229.5,41.8c1.1,0,2.7,1.5,2.7,3c0,1.1-1.5,2.6-2.7,2.6c-1.5,0-2.6-1.5-2.6-2.6
			C226.8,43.3,228,41.8,229.5,41.8z M237.4,42.5c1.5,0,2.6,1.1,2.6,2.6c0,1.5-1.1,2.7-2.6,2.7s-2.7-1.1-2.7-2.7
			C234.8,43.7,235.9,42.5,237.4,42.5z M246.2,44.4c1.5,0,2.7,1.1,2.7,2.7c0,1.5-1.1,2.7-2.7,2.7c-1.5,0-2.7-1.1-2.7-2.7
			C243.5,45.6,244.6,44.4,246.2,44.4z M209.4,52.4c-1.5-2.7-3.4-7.2-4.5-9.1c4.2-2.7,18.9-3,23.9-3.4c8.3,0,19.3,1.5,23.1,3.4
			c0-0.8-2.3,7.2-3.4,9.5c-6.1-2.3-14.8-2.6-20.1-2.6C221.9,49.7,214.3,50.5,209.4,52.4L209.4,52.4z"/>
		<path class="st1" d="M229,52.3c10.6,0,18.9,1.1,18.9,2.7c0,1.1-8.3,1.9-18.9,1.9c-10.2,0-18.9-0.8-18.9-1.9
			C210,53.5,218.7,52.3,229,52.3"/>
		<path class="st1" d="M111.5,6.1h1.5v-7.7h-1.5V6.1z M120.2,3.6l-3.1-5.4h-1.7v7.7h1.5V0.5l3.1,5.4h1.7v-7.7h-1.5L120.2,3.6
			L120.2,3.6z M105.1,22.8h3.5c2.7,0,3.3-2.5,3.3-4.1c0-1.5-0.6-3.9-3.1-3.9h-3.7L105.1,22.8L105.1,22.8z M106.9,16.2h1.5
			c0.8,0,1.9,0.2,1.9,2.5c0,1.4-0.6,2.7-1.9,2.7h-1.5V16.2z M112.9,17.9c0,3.9,2.7,4.3,3.9,4.3c1,0,3.9-0.4,3.9-4.3
			c0-3.7-2.9-4.1-3.9-4.1C115.6,13.9,112.9,14.2,112.9,17.9z M114.6,17.9c0-2.1,1.2-2.7,2.1-2.7c0.8,0,2.1,0.6,2.1,2.7
			c0,2.3-1.4,2.9-2.1,2.9C115.8,20.8,114.6,20.2,114.6,17.9z M129.5,13.3H127l-1.4,6.2l-1.4-6.2h-2.5v7.9h1.5v-6.6l1.6,6.6h1.5
			l1.5-6.6v6.6h1.5L129.5,13.3z M109,39.6h1.6v-7.9H109V39.6z M117.3,36.5l-3.1-5.6h-1.9V39h1.7v-5.8l3.1,5.8h1.7v-8.1h-1.5V36.5z
			 M120.6,34.6c0,3.9,2.7,4.3,3.9,4.3c1,0,3.7-0.4,3.7-4.3c0-3.7-2.7-4.1-3.7-4.1C123.3,30.5,120.6,30.9,120.6,34.6z M122.2,34.6
			c0-2.1,1.4-2.7,2.3-2.7c0.8,0,2.1,0.6,2.1,2.7c0,2.3-1.4,2.9-2.1,2.9C123.5,37.5,122.2,36.9,122.2,34.6z M102.6-9.4
			c0,0,6.8,2.7,12.8,0.6c7-3.3,13-4.6,18-2.3v59.4c-4.3-1.5-8.9-1-15.7,0.6c-6,1.7-10.1,1.7-15.1,0.8L102.6-9.4L102.6-9.4z"/>
		<path class="st1" d="M100.1-8.8l-5,4.4v59.6l5-5.2V-8.8z"/>
		<path class="st1" d="M96.9,56.2l5.6-4.5c4.1,1.2,12.8-0.6,16.8-1.2c6.8-1,9.7-2.3,14.5,0c-2.7,1.2-4.5,3.5-4.5,5.6L96.9,56.2z"/>
		<path class="st1" d="M172.6,56.2l-5.4-4.5c-4.6,1.2-12.6-0.6-16.8-1.2c-7.4-1-9.7-2.3-13.9,0c2.1,1.2,3.7,3.5,3.3,5.6L172.6,56.2z
			"/>
		<path class="st1" d="M168.7-9.4l5.2,5v59.1l-5.2-5V-9.4z"/>
		<path class="st1" d="M160.8,5l-3.1-5.6H156v7.9h1.6V1.7l3.3,5.6h1.7v-7.9h-1.7L160.8,5 M148.8,3.2c0-2.1,1.2-2.7,2.1-2.7
			c0.8,0,2.1,0.6,2.1,2.7c0,2.3-1.4,2.9-2.1,2.9C150,6.1,148.8,5.5,148.8,3.2z M147.1,3.2c0,3.9,2.7,4.3,3.9,4.3
			c1,0,3.9-0.4,3.9-4.3c0-3.7-2.9-4.1-3.9-4.1C149.8-0.9,147.1-0.5,147.1,3.2z M145.7,0.9c-0.2-1.2-1.2-2.7-3.5-2.7
			c-2.1,0-3.7,1.4-3.7,4.1c0,2.9,1.5,4.3,3.7,4.3c1.9,0,3.1-1.2,3.5-2.9H144c-0.2,1-0.8,1.6-1.7,1.6c-1.5,0-1.9-1.4-1.9-2.9
			c0-2.1,1.2-2.7,1.9-2.7c1.4,0,1.5,1,1.7,1.4L145.7,0.9z M153.1,23.2h1.7v-7.9h-1.7V23.2z M147.1,19.7h3.5v-1.5h-3.5v-1.7h4.1V15
			h-5.8V23h1.7L147.1,19.7z M153.3,35.7c0-2.1,1.2-2.7,2.1-2.7c0.8,0,2.1,0.6,2.1,2.7c0,2.3-1.4,2.9-2.1,2.9
			C154.4,38.6,153.3,38.1,153.3,35.7z M151.5,35.7c0,3.9,2.7,4.3,3.9,4.3c1,0,3.9-0.4,3.9-4.3c0-3.7-2.9-4.1-3.9-4.1
			C154.2,31.7,151.5,32.1,151.5,35.7z M144.3,32.1h1.5c0.8,0,1.7,0.2,1.7,2.5c0,1.4-0.4,2.7-1.7,2.7h-1.5V32.1z M142.6,38.6h3.5
			c2.7,0,3.3-2.5,3.3-4.3c0-1.5-0.6-3.7-3.3-3.7h-3.5V38.6z M166.6-9.4c0,0-6.8,2.7-12.8,0.6c-7.4-3.3-13.2-4.6-17.4-2.3v59.4
			c3.7-1.5,8.1-1,14.9,0.6c6.4,1.7,10.1,1.7,15.3,0.8V-9.4z"/>
		<path class="st1" d="M135,51.8c-2.1,2.3-3.3,2.3-2.7,4.5h4.8C137.7,54.1,137.1,52.9,135,51.8"/>
	</g>
	<path class="st0" d="M44.7,140.2c0.8,0,1.5,0.8,1.5,1.5s-0.8,1.5-1.5,1.5c-0.8,0-1.5-0.8-1.5-1.5S44,140.2,44.7,140.2 M33.8,162.2
		c0.8-1.5,2.3-6.1,3-7.6c-0.8-1.5-2.3-3-3.8-3c0.8-1.5,3.4-3.8,3-4.9c-0.8-1.5-1.9-1.1-4.5-2.7c0.8-1.9,3-3,4.2-3
		c1.5-0.4,1.5-2.7,4.2-3.8c2.6-1.5,5.3-1.5,8.3-1.5c4.5,0.4,15.9,3.4,12.9,17.4c6.8,14,31.1-4.9,39.4-4.9c-1.5,3.4-3.4,6.4-5.3,9.5
		c2.3,1.5,5.3,0,8,0c-2.7,7.6-7.2,11-11,14c3.8,12.5,18.2,7.6,31.1,6.1c-1.5,4.2-6.8,4.9-9.1,8c4.2,4.5,9.1,10.6,12.1,17
		c-5.7-3.8-17.4-8-21.6-9.5c-7.6-3-23.5-3-31.1,0c1.5,3,4.5,4.5,6.8,6.4c-3.8,7.6-11.7,3-16.3,1.5c-4.2,3-11.4,3-13.3,1.5
		c0,0,0-1.9,2.3-3.8c1.5-1.9-4.5-2.7-6.4-5.7c0-2.6,3.4,0,4.9-3C47.8,182.6,31.5,180.7,33.8,162.2L33.8,162.2z"/>
	<path class="st0" d="M154.5,142.4c1.1,0,1.5,0.4,1.5,1.5c0,0.8-0.4,1.5-1.5,1.5c-0.8,0-1.5-0.8-1.5-1.5
		C153,142.8,153.8,142.4,154.5,142.4 M143.9,164.4c0.4-1.5,1.9-6.1,3-7.6c-1.1-1.5-2.7-3.4-3.8-3.4c0.8-1.5,3.4-3.4,2.7-4.5
		c-0.4-1.5-1.5-1.1-4.2-2.7c0.8-1.9,2.7-3,4.2-3.4c1.5,0,1.5-2.3,3.8-3.8c2.7-1.1,5.7-1.1,8.7-1.5c4.2,0.8,15.9,3.8,12.9,17.8
		c6.8,13.6,31.1-4.9,39.4-4.9c-1.5,3-3.8,6.4-5.3,9.5c2.3,1.5,5.3,0,8,0c-2.7,7.6-7.2,11-11,14c3.8,12.1,18.2,7.6,31.1,6.1
		c-1.5,4.2-6.8,4.5-9.5,8c4.5,4.5,9.5,10.6,12.5,17c-5.7-3.8-17.8-8-21.6-9.5c-8-3-23.5-3-31.4,0c1.5,3,4.9,4.5,7.2,6.1
		c-4.2,8-11.7,3.4-16.3,1.9c-4.2,3-11.4,3-13.3,1.5c0,0,0-2.3,2.3-3.8c1.5-2.3-4.5-2.6-6.4-5.7c0-3,3,0,4.9-3
		C157.5,184.5,141.6,183,143.9,164.4L143.9,164.4z"/>
	<path class="st0" d="M102.2,220.6c0.4,0,1.1,0.4,1.1,1.5c0,0.4-0.8,1.1-1.1,1.1c-1.1,0-1.9-0.8-1.9-1.1
		C100.3,221,101.1,220.6,102.2,220.6 M90.9,242.5c0.8-1.5,2.3-6.1,3.4-7.6c-1.1-1.5-2.7-3.4-3.8-3.4c0.4-1.5,3-3.4,2.6-4.5
		c-0.8-1.5-1.5-1.1-4.5-2.7c1.1-1.9,3-3,4.5-3.4c1.5,0,1.5-2.3,3.8-3.8c2.7-1.1,5.7-1.1,8.7-1.5c4.2,0.4,15.5,3.8,12.5,17.8
		c6.8,13.6,31.4-4.9,39.8-4.9c-1.5,3-3.8,6.4-5.3,9.5c2.3,1.5,5.3,0,7.6,0c-2.3,7.6-6.8,10.6-10.6,14c3.8,12.1,18.2,7.6,31.1,6.1
		c-1.5,4.2-6.8,4.5-9.5,7.6c4.5,4.9,9.5,11,12.5,17.4c-5.7-3.8-17.8-8-21.6-9.5c-8-3-23.5-3-31.4,0c1.5,3,4.5,4.5,7.2,6.1
		c-4.2,8-11.7,3.4-16.7,1.5c-3.8,3.4-11,3.4-13.3,1.9c0,0,0-2.3,2.6-3.8c1.5-2.3-4.5-2.7-6.4-5.7c0-3,3,0,4.9-3
		C104.9,262.6,88.6,261.1,90.9,242.5L90.9,242.5z"/>
	<path class="st0" d="M-22.9,220.3c0.9-3.4,3.6-6,6.5-6.5c5.9-1.5,10.5-8.1,16.2-8.8c9.1-1.2,15.7,7.4,14.2,12.3
		c-2.2,4.3-13.5,9.6-10.3,14.2c6.3,9.2,11,14.4,11.8,22.6c0.5,4.9-8.3,5.9-8.3,10.8c6.4,10.4,57.5,70.9,99.6,87.3
		c0.9-4.2,0.2-7.7,10.3-8.6c9.3-0.7,25.4-0.7,35-1.1c11.5-0.5,10.1,10.2,14.2,8.6c42.7-16.1,90.2-71.4,99.5-87.7
		c0-2.9-4.4-5.4-6.4-7.4c-2.5-2.5-0.7-9,0.4-11.3c3.3-6.9,7-10.4,10.9-18.6c-3.4-6-7.1-5.4-10.3-9.8c-2.6-6.9,9.5-17.2,16.8-12.6
		c5.5,2.3,8.7,5.5,14.5,8.6c7.1,3.9,5.8,10.8,3.7,16.7c-2.8,7.9-8.5,15.3-11.8,24.4c-2.3,6.5,2.8,6.1,3.6,8.5
		c3.4,2.3,3.9,6.5-0.4,13.4c-22.3,36.1-67.5,81.1-111,99.5c-3.9,1.6-6.5,3.3-14.5,1.6c-6.1-1.4-4.5-9.2-7.4-11.8
		c-1.1-2.7-37.8-1.1-40,1.8c-1.4,5.3-4.3,12-10.8,10.3C59.3,365.3-9.5,287-16.1,273.8c-2.6-5.2,1.2-12.4,6.3-16.2c0.5-2-2.6-7-3.1-9
		C-16.1,240.5-25.2,229.9-22.9,220.3"/>
	<path class="st1" d="M2.3,207.5c-2.7,0.1-6,2.5-4.4,6.9c2.7-1.6,4.9-5.3,7.4-4.5c1.1,1.5-0.5,2.9,3.9,7.5c1,0,2-0.5,2.5-1
		C11,211.5,4.5,207.9,2.3,207.5 M3.1,213.8c-1,1-3.8,3.6-4.8,5c0.7,2.6,1.4,4.2,2.9,6.9l6.7-5.4C6.4,218.5,4.8,216.9,3.1,213.8z
		 M-7.1,211.9c-2.5,1-4.9,4.4-7.9,4.9c-12.9,2.5,0.6,19.5,7.7,37.8c4.9-5.2,8-4.5,11.8-3.9c2,0.9,5.9,4.9,7.9,4.2
		c1-1.7-4.3-10.9-5.9-13.3C2.3,235.4-3.9,225.2-7.1,211.9L-7.1,211.9z M8.6,257.9c-1.5-1.5-4.3-5.6-6.7-5.2c0,2.9,1,6.6,3.4,9.1
		C6.3,260.9,7.7,259.4,8.6,257.9z M-2.2,254.6c-4.8,4-15,10.3-9.9,21.1c10.8,17.9,79.7,90.5,113.1,97.4c4.7,1.6,8.8-1.7,9.8-8.2
		c1-6.5,3.2-4.8,3.3-8.7C84.7,357.7,3.7,274.8-2.2,254.6L-2.2,254.6z M115.3,351.5c-1,0-2.9-1.2-3.9-1.2c-0.5,0.5-1,1.1-1,2.1
		C111.3,353.4,115.7,354,115.3,351.5L115.3,351.5z M151.4,352.3c-0.5-3.4,4.4-3.4,5.9-4.9c2.5-4.2-38-2-43.2-0.4
		c-0.5,1.5,5.4,2.9,4.4,7.7c-0.5,2.5-2.5,4.4-2,7.4c15.6-2.7,25.1-2.6,36.9-1.1C154.4,359.1,150.5,355.2,151.4,352.3L151.4,352.3z
		 M159.4,350.2c-1-0.5-2.1,1-3.1,1.5c0.5,0.5,2.3,1.4,4.4,0.7C160.9,350.9,159.4,350.7,159.4,350.2z M285.9,269.1
		c0.7-5.2-2.7-6.3-5.1-8.7c-2.5-2.5-5-3.9-7.1-6.3c-1.1,4.3,0,4.3-3.8,8.6c-22.1,34.1-64.3,74-96.7,88.8c-7.2,3.9-11.7,4.7-17.8,4.2
		c0,1.5,1.5,3.9,2,5.4c1.5,4.4-1,15.8,14.4,12.1c0,0,30.2-11.3,64-42.7C276.7,292.7,285.9,269.1,285.9,269.1L285.9,269.1z
		 M269.2,252.7c-1,0-3.4,2-3.9,2.5c0,1.5,1.5,2.5,2.5,3.4C269.7,257.6,270.2,254.6,269.2,252.7z M293.3,220.3
		c1.2-2.9-8.5-9.6-12.3-9.3c-0.1,3.4-1.5,5.8-3.9,11.3c-4,9.1-11.3,16.2-14.2,25c-0.5,1.5-1.5,3.4,0,4.9c5.8-3.8,11.4-4.4,16.4,1.7
		c1.5-1,1.8-4.3,2.7-6.1C285.4,240.4,293.3,230.6,293.3,220.3L293.3,220.3z M275.6,216.4l-3.1-3.3c-1.4,1.1-3.8,3.4-4.8,4.7
		c1.1,2.3,2.8,4.3,5,5.4C274.3,223.1,275.1,217.8,275.6,216.4z M270.2,206.1c-2.6,0.5-8.8,5.9-5.9,8.8c7,1,3.2-6.6,6.3-7.4
		c4.8,0,3.4,4.9,7.4,3.1C279.8,207.4,272.3,205.7,270.2,206.1z"/>
	<path class="st0" d="M96.8,365.5c-0.8,1.7-1,1.9-1.9,1.7l-0.8-0.4c-0.2,0-0.4,0.4-0.4,0.6c1.4,0.8,2.3,1,3.3,1.4
		c0.6,0.4,1.6,1,2.7,1.5c0.2-0.2,0.2-0.6,0.2-0.8l-0.6-0.4c-0.8-0.6-0.8-0.6,0-2.3l3.7-7.9c0.2-0.4,0.2-0.4,0.6-0.2l1.2,0.4
		c1.4,0.8,1.4,1.5,1,3.1c0,0,0.6,0.2,0.6,0c0.6-1,1.4-2.3,1.7-2.7c0-0.2,0-0.4-0.2-0.4h-0.2c-0.4,0.2-0.6,0-1.7-0.6l-6.6-3.1
		c-1.4-0.6-1.4-0.6-1.4-1c-0.2,0,0,0-0.2-0.2h-0.4c-0.4,0.6-1,1.7-1.9,2.7c0,0.2,0.2,0.6,0.6,0.6c1.2-1,1.7-1.5,3.1-1l1.2,0.6
		c0.4,0.2,0.4,0.2,0.2,0.6L96.8,365.5z M91.4,357.5c1-1.4,1.6-2.7,2.3-3.1c0.2-0.2,0.6-0.2,1,0l0.4,0.2c0.2-0.2,0.4-0.4,0.4-0.8
		c-0.8-0.2-1.4-0.6-1.9-1c-0.6-0.4-1.4-0.8-2.3-1.2c-0.2,0-0.2,0.4-0.2,0.6l0.2,0.2c0.6,0.4,0.8,0.6,0.8,1.2c0,0.6-0.8,1.9-1.4,3.3
		l-1.4,2.3c-0.4,0.4-0.4,0.6-0.6,0.8c0-0.6-0.4-1.5-0.6-2.9l-0.6-2.5c-0.4-2.5-0.8-4.5-0.6-5.4c-0.4,0-0.8-0.4-1.4-0.8
		c-0.8-0.4-1.7-0.8-2.3-1.4c-0.4,0-0.6,0.4-0.6,0.8l0.6,0.2c0.4,0.4,0.6,0.8,0.6,1.2c0,0.2-0.2,0.6-0.6,1.5l-2.5,4.5
		c-0.8,1.4-1.6,2.5-2.1,2.9c-0.2,0.2-0.6,0-1,0h-0.4c-0.2,0-0.4,0.4-0.4,0.6c0.6,0.4,1.4,0.6,1.9,1c0.6,0.4,1.4,0.8,2.1,1.4
		c0.2-0.2,0.4-0.6,0.4-0.8L81,360c-0.4-0.4-0.8-0.8-0.8-1.2c0.2-0.6,0.8-1.9,1.6-3.3l1.9-3.3c0.2-0.6,0.4-1,0.6-1
		c0.2,0.4,0.4,1.4,0.8,3.1l1.2,7.2c0.4,1.4,0.4,2.7,0.4,2.7c0.4,0.2,1,0.2,1.2,0.2c0.2-0.8,1-1.7,1.5-2.9L91.4,357.5z M67.2,345.3
		c-1.4,1.7-1.7,3.3-1.4,4.5c0.4,1.5,1.4,2.5,2.5,3.3c1.4,1,2.9,1.2,4.3,1c1.4-0.6,2.5-1.7,3.7-3.3l1.2-1.7c0.8-1.4,1.7-2.5,2.1-2.9
		c0.6-0.2,1-0.2,1.4,0l0.4,0.2c0.2-0.2,0.4-0.4,0.2-0.6c-0.6-0.4-1.2-0.8-1.7-1.4c-0.6-0.2-1.2-0.8-2.1-1.4c-0.2,0-0.4,0.4-0.4,0.4
		l0.4,0.6c0.4,0.4,0.6,0.8,0.6,1.2c0,0.6-1,1.7-1.9,3.1l-1.2,1.9c-1.6,2.3-3.5,3.7-5.4,2.3c-2.5-1.7-1.4-4.1,0-6l2.5-3.7
		c1-1.4,1.2-1.6,1.9-1.2l0.6,0.2c0.2,0,0.4-0.4,0.2-0.6c-0.6-0.6-1.4-1-2.3-1.5c-0.8-0.6-1.5-1.2-2.3-1.6c-0.2,0-0.4,0.2-0.4,0.4
		l0.4,0.4c0.6,0.6,0.6,0.8-0.4,2.3L67.2,345.3z M66.2,334.5c-1.7-1.2-3.5-1.9-5.4-1.7c-1.7,0-3.5,0.6-5,2.5c-1.4,1.9-1.6,4.1-1,5.6
		c0.4,1.7,1.7,3.5,3.1,4.7c1.2,1,2.9,1.4,3.7,1.5c0.6-0.2,1.6-1,2.5-1.9c0-0.4-0.2-0.6-0.4-0.8c-1.2,1-3.3,1.7-5,0.2
		c-1.9-1.4-2.5-4.5-0.2-7.6c2.3-3.1,5.4-3.3,7.2-1.9c1.5,1.2,1.9,2.7,1.2,4.5c0,0.2,0.4,0.6,0.8,0.4c0.6-1,1.4-2.3,1.5-2.5
		C68.8,337,67.8,335.7,66.2,334.5L66.2,334.5z M52.9,335.5c1.4-1.7,1-3.5,0.4-4.6l-0.4-1.4c-0.6-1.2-0.6-2.3,0-2.9
		c0.6-0.8,1.5-1.2,2.5-0.2c1.2,1,0.8,2.5,0.6,3.5c0,0.4,0.6,0.6,0.6,0.6c0.8-1,1.4-2.1,1.5-2.3c0-0.4-0.2-0.4-0.4-0.8
		c-0.4-0.6-1.2-1.2-1.5-1.5c-2.1-1.7-4.5-1.7-5.8,0c-1.2,1.4-1,3.3-0.2,4.8c0.4,1.2,1,2.7,0,4.1c-0.8,0.8-1.7,1-2.9,0
		c-1.2-1-1.2-3.3-0.6-4.5c0-0.2-0.4-0.6-0.6-0.4c-1,1-1.7,2.1-1.7,2.9c0.2,0.4,0.8,1.7,2.1,2.7C48.6,337.4,51.3,337.4,52.9,335.5
		L52.9,335.5z M44.9,317.8c0.6-0.6,0.6-0.6,1-0.2l1.2,1.2c0.8,0.6,1,1.2,1,1.7c0,0.4-0.2,1-0.4,1.5c0.2,0.4,0.4,0.6,0.6,0.6
		c0.8-1.2,1.7-2.3,1.9-2.5c-0.2-0.2-1-0.8-2.1-1.7l-3.1-2.7c-0.6-0.8-1.4-1.4-2.1-2.1c0,0-0.4,0.4-0.4,0.8l0.4,0.2
		c0.4,0.8,0.4,1-0.8,2.1l-4.8,5.6c-1.2,1.4-1.6,1.4-2.1,0.8l-0.6-0.4c-0.4,0-0.8,0.4-0.6,0.6c1,1,1.7,1.4,2.5,2.1l1.9,1.7
		c1.2,1,2.3,2.3,3.3,3.1c0.6-0.4,1.9-1.2,2.7-1.9c0-0.2-0.2-0.6-0.4-0.6c-2.3,1-2.9,0.6-4.3-0.6c-1-0.8-1.2-1.4-1-1.7
		c0-0.4,0.2-1,1-1.7l1.4-1.5c0.6-0.4,0.6-0.4,1,0l1,0.8c0.8,0.8,0.8,1,0.4,1.7l-0.2,0.4c-0.2,0.4,0.2,0.8,0.4,0.6
		c0.6-0.6,1-1,1.5-1.5c0.4-0.6,1-1.2,1.4-1.5c0-0.2-0.4-0.4-0.8-0.4l-0.2,0.2c-0.8,0.6-1.2,0.6-1.7-0.2l-1-0.8
		c-0.6-0.4-0.4-0.6-0.2-1L44.9,317.8z M33.9,307.6c0.4-0.4,0.6-0.6,1-0.8c0.2,0,0.6,0.2,0.8,0.6c2.7,2.5,2.5,5.2,0,7.9
		c-1.7,1.9-4.8,3.3-7.2,1c-0.4-0.6-0.8-1.2-0.8-1.5c0-0.8,0.4-1.2,1.4-1.9L33.9,307.6z M26.3,311.3c-1.2,1.4-1.4,1.4-2.1,1l-0.6-0.4
		l-0.4,0.4c0.8,0.8,1.6,1.4,2.3,2.1c0.4,0.6,1,1.4,1.5,1.9c1.6,1.5,2.9,2.3,4.5,2.7c2.3,0.8,4.6,0.2,6.6-1.7c1.6-1.7,2.3-4.3,1-7
		c-0.6-1.2-1.6-2.3-2.7-3.5c-1.5-1.5-2.7-2.5-3.9-3.5c-0.2-0.2-0.6,0.2-0.6,0.4l0.4,0.2c0.4,0.8,0.2,1-1,2.3L26.3,311.3z
		 M26.2,304.3c1.2-1.2,2.3-1.9,2.9-2.3c0.4-0.2,0.6,0,1.2,0.4l0.2,0.2c0.4,0,0.6-0.4,0.6-0.6c-0.6-0.6-1-1-1.6-1.5
		c-0.6-0.4-1.2-1.2-1.7-1.7c-0.4,0-0.6,0.2-0.6,0.4l0.2,0.4c0.4,0.6,0.8,0.8,0.4,1.2c-0.2,0.6-1.2,1.7-2.3,2.9l-1.7,1.9
		c-0.4,0.2-0.6,0.4-0.8,0.6c0.2-0.8,0.2-1.5,0.2-2.9l0.2-2.7c0.4-2.5,0.4-4.5,1-5.2c-0.4-0.2-0.8-0.8-1.2-1.4
		c-0.8-0.6-1.4-1.2-1.9-1.7c-0.2-0.2-0.4,0.2-0.6,0.4l0.4,0.4c0.4,0.6,0.4,1,0.2,1.4c0,0.4-0.2,0.4-1,1.2l-3.5,3.5
		c-1.2,1.4-2.3,2.1-2.9,2.3c-0.2,0.2-0.6,0-1.2-0.2l-0.4-0.2c0,0-0.4,0.4-0.4,0.6c0.4,0.6,1.2,1,1.7,1.6c0.4,0.4,1,1,1.7,1.7
		l0.4-0.4l-0.2-0.6c-0.2-0.4-0.6-0.8-0.6-1.2c0.4-0.6,1.4-1.5,2.3-2.7l2.7-2.7c0.8-0.6,1-0.8,1-0.8c0.2,0.4,0,1.5-0.2,3.3l-0.8,7
		c0,1.5-0.4,2.7-0.4,2.7c0.4,0.4,1,0.6,1.2,0.6c0.4-0.6,1.4-1.4,2.3-2.3L26.2,304.3z M10.3,290.2c-0.2-0.2-0.4-0.2,0.2-0.4l1.6-0.6
		c0.8-0.6,1.7-0.8,1.9-1c0,0.4-0.4,1.2-1,1.9l-1,1.4c0,0.6-0.2,0.4-0.6,0L10.3,290.2z M10.7,292.5c0.6,0.4,0.6,0.6,0.4,1l-0.8,1.4
		c-0.4,0.8-0.6,1.2-0.8,1.2H8.9l-0.6-0.6c-0.2,0-0.6,0.2-0.6,0.6c0.6,0.6,1.2,1.2,1.9,1.9c0.6,0.8,1.2,1.5,1.7,2.3
		c0.2,0,0.6-0.2,0.6-0.6l-0.4-0.6c-0.4-0.6,0-1.2,0.4-2.1l4.3-7c0.8-1.4,1-1.9,1.4-2.5c0.2-0.2,0.2-0.4,0-0.6c0,0-1.4,0-1.9-0.6
		c-0.4,0.4-1.4,0.6-2.3,1.2l-4.8,1.7c-1.4,0.6-2.3,1-3.3,1c-0.6,0.4-1.2,0.2-1.4-0.2l-0.6-0.4c-0.2,0-0.6,0.4-0.4,0.6
		c0.6,0.8,1,1.2,1.4,1.5c0.4,0.8,1,1.2,1.4,1.9c0.4,0,0.6-0.4,0.6-0.6L6,292.5c-0.4-0.4-0.4-0.6-0.2-0.6c0.2-0.2,0.2-0.4,0.6-0.4
		l2.1-1c0.4-0.2,0.4-0.2,0.8,0.2L10.7,292.5z M7,277.4c0.6-0.6,0.8-0.6,1.4,0c1,1.2,0.6,2.9-0.8,3.9c-0.8,0.8-1.5,1-1.9,0.8
		c-0.6,0-1-0.2-1.4-0.8c-0.8-0.8-0.8-1-0.4-1.4L7,277.4z M-1.2,280.7c-1.4,1.2-1.6,1.2-2.3,0.6l-0.4-0.4c-0.2,0-0.6,0.4-0.6,0.6
		c0.6,0.8,1.4,1.4,1.9,2.1c0.8,0.6,1.2,1.4,1.7,2.3c0.4,0,0.8-0.4,0.8-0.6l-0.4-0.4c-0.4-0.8-0.4-1,1-2.1l1.9-1.5
		c0.2-0.4,0.2-0.4,0.8,0.2c0.2,0.4,0.4,0.8,0.2,1.4c-0.6,1-1.2,1.9-1.5,3.1c-0.4,1.6-0.4,2.9,0.8,4.3c0.6,0.4,1,1,1.2,1.2
		c0.4,0,0.6-0.4,0.6-0.6c-0.2-0.2-0.6-0.6-0.6-1.4c0-1.2,0.8-2.9,1.9-5.4c0.2-0.2,0.2-0.4,0.4-0.4c0.8,0.6,2.1,1,3.5-0.2
		c1-0.8,1.4-1.9,1.2-3.1c-0.2-1-1-2.1-1.9-3.5c-1.2-1.4-2.3-2.5-3.3-3.7c-0.2,0-0.6,0.4-0.6,0.6l0.2,0.4c0.6,0.8,0.4,0.8-1,2.1
		L-1.2,280.7z M-3.1,276.4c0.8-0.6,1-0.6,1.5-0.2l0.4,0.2l0.4-0.2c-0.4-0.8-1-1.4-1.6-2.1c-0.4-0.8-1.2-1.6-1.7-2.7
		c-0.4-0.2-0.8,0.2-0.6,0.4l0.4,0.8c0.4,0.8,0.4,1-0.6,1.6l-1,0.8c-1,0.6-1.4,0.6-1.9-0.4c-0.4-0.6-1-1.4-1-2.5
		c0-1.5,0.8-3.3,2.9-4.8c2.7-1.9,5.6-2.3,7.4,0.4c1.2,1.4,1,2.9,0,4.7c0,0,0.2,0.6,0.4,0.4c0.8-0.8,1.9-1.7,2.3-1.9
		c-0.4-0.4-0.6-1.7-1.7-3.5c-1.2-1.4-2.3-2.5-3.7-2.9c-2.3-1.4-4.8-1-6.8,0.6c-2.3,1.5-3.1,4.1-2.5,6.6c0.4,1.4,0.8,2.5,1.5,3.5
		c0.8,1,1.9,2.1,2.5,2.7c0.6,0.2,1,0.6,1.2,0.8c0.2,0.2,0.4-0.2,0.4-0.4c-0.2-0.2,0-0.4,0.8-1L-3.1,276.4z"/>
	<path class="st0" d="M270.9,267.6c-0.6-0.4-0.8-0.4-0.4-1l1-1.5c0.4-0.8,1-1.2,1.6-1.4c0.4,0,1.2,0,1.9,0.2c0,0,0.4-0.6,0.2-0.8
		c-1.2-0.6-2.5-1.2-2.9-1.4c0,0.4-0.8,1.2-1.4,2.5l-2.1,3.7c-0.6,1-1.2,1.7-1.7,2.5c0,0.2,0.4,0.6,0.6,0.6l0.4-0.6
		c0.6-0.6,0.8-0.8,2.5,0.2l6.6,4.1c1.6,1,1.6,1.2,1.4,1.9l-0.4,1c-0.2,0.4,0.4,0.6,0.8,0.4c0.8-1.2,1.2-2.1,1.5-3.1l1.4-2.1
		c1-1.5,2.1-3.3,2.7-4.3c-0.4-0.6-1.7-1.7-2.3-2.3c-0.4,0-0.8,0.2-0.6,0.4c1.4,2.3,1,2.9,0.2,4.5c-1,1.4-1.2,1.5-1.7,1.5
		c-0.4,0.2-1-0.2-1.7-0.6l-2.1-1.4c-0.6-0.4-0.6-0.4-0.4-0.8l0.8-1.4c0.6-1,0.8-1,1.7-0.6l0.6,0.2c0.2,0,0.6-0.6,0.4-0.6
		c-0.6-0.4-1.4-0.8-1.9-1.2c-0.8-0.6-1.4-1-1.9-1.2c0-0.2-0.4,0.4-0.4,0.6l0.4,0.4c0.8,0.6,0.8,1,0.2,1.7l-0.6,1.4
		c-0.4,0.4-0.4,0.4-1,0.2L270.9,267.6z M263.3,279.4c-0.8-0.6-0.8-0.6-0.2-1.4c0.8-1.4,2.5-1.5,4.1-0.4c1,0.8,1.2,1.4,1.4,1.7
		c0.2,0.8-0.2,1.2-0.6,1.7c-0.6,1-0.6,1-1.4,0.6L263.3,279.4z M269,286.8c1.5,1.2,1.5,1.4,1.2,2.1l-0.2,0.6c0,0.2,0.4,0.4,0.8,0.6
		c0.6-1.2,1-1.7,1.5-2.7c0.6-0.8,1.2-1.5,1.9-2.3c-0.2-0.2-0.6-0.6-0.8-0.6L273,285c-0.8,0.4-0.8,0.4-2.5-0.6l-2.1-1.4
		c-0.2-0.4-0.2-0.4,0.2-1c0.4-0.4,0.6-0.6,1.2-0.6c1.2,0.4,2.5,0.4,3.5,0.6c1.7,0.2,3.3-0.4,4.3-1.9c0.6-0.6,0.8-1,0.8-1.7h-0.4
		c-0.4,0.2-0.8,0.6-1.4,0.8c-1.2,0.2-3.1,0-6-0.4c-0.4,0-0.4,0-0.4-0.4c0-1,0.2-2.5-1.4-3.5c-1.2-0.8-2.3-0.8-3.5-0.4
		c-1,0.4-2.1,1.5-3.1,2.9c-1.2,1.7-1.9,3.1-2.7,4.4c0,0.2,0.4,0.4,0.6,0.4l0.4-0.4c0.6-0.8,0.8-0.6,2.5,0.8L269,286.8z M261.8,289.5
		c2.7,1.9,4.1,4.3,2.5,6.4c-1.9,2.9-5.8,1.2-7.9-0.2c-2.7-2.1-3.9-4.6-2.3-6.8C255.6,286.8,258.7,287.4,261.8,289.5L261.8,289.5z
		 M253.3,288.3c-2.5,3.5-1.7,7.7,1.5,10.3c3.7,2.5,7.6,1.7,10.1-1.5c2.7-3.7,2.1-7.7-1.5-10.5C260,284.1,255.8,284.8,253.3,288.3z
		 M249.2,304.8c-0.6-0.8-0.6-0.8,0.2-1.5c1.2-1.5,2.9-1.5,4.3-0.2c1.4,1,1.7,2.3,0.8,3.5c-1.2,1.4-2.1,0.8-3.3-0.2L249.2,304.8z
		 M244.9,300.9c-0.8-0.8-0.8-0.8-0.2-1.4c1-1.2,2.3-1.5,3.7-0.4c1,1,1.4,2.1,0.4,3.5c-0.8,1-0.8,1-1.4,0.4L244.9,300.9z
		 M249.6,308.8c1.5,1.2,1.5,1.4,1.2,2.1l-0.4,0.6c-0.2,0.2,0.2,0.6,0.6,0.6c0.8-1,1.4-1.7,1.9-2.5c0.4-0.4,1.2-1,1.7-1.6
		c0.8-1,1.5-2.1,2.1-3.7c0.6-1.2,0.4-2.7-1-4.1c-1.7-1.2-3.3-0.8-4.6,0.2h-0.4c0,0,0-0.2,0.2-0.4c0.2-0.6,0.6-2.1-0.6-3.3
		c-1-1-1.9-1-2.9-0.8c-1.2,0.4-2.1,1.4-3.7,2.7c-1.2,1.5-1.9,2.7-3.1,4.1c-0.2,0.4,0.4,0.6,0.6,0.6l0.4-0.4c0.6-0.6,0.8-0.4,2.5,1
		L249.6,308.8z M239.5,315c-0.4,0.4-0.4,0.4-0.8-0.2l-0.8-1.4c-0.4-0.8-1-1.7-1.2-2.1c0.4,0,1.4,0.6,2.1,1l1.7,0.8
		c0.4,0,0.4,0.2,0,0.6L239.5,315z M241.6,314.3c0.4-0.4,0.6-0.4,0.8-0.4l1.9,0.8c0.8,0.2,1.2,0.6,1.2,0.6c0.2,0.2,0.2,0.4,0,0.8
		l-0.4,0.6c0,0.2,0.2,0.4,0.8,0.6c0.4-1,1-1.5,1.7-2.3c0.8-0.8,1.5-1.5,2.1-2.3c0-0.2-0.4-0.6-0.6-0.4l-0.6,0.4
		c-0.8,0.4-1.2,0.2-2.3-0.2l-8.1-3.5c-1.4-0.6-2.1-0.8-2.7-1.2c-0.2-0.2-0.4,0-0.6,0.2c0,0,0.2,1.2-0.2,2.1c0.4,0.4,0.8,1.2,1.4,2.3
		l2.5,4.8c0.8,1.4,1.4,2.3,1.7,3.1c0.2,1,0.2,1.4-0.2,1.5l-0.4,0.8c0,0.2,0.4,0.4,0.6,0.6c0.8-1,1-1.4,1.6-1.9
		c0.6-0.6,1.2-1.2,1.7-1.6c0-0.4-0.4-0.8-0.6-0.8l-0.6,0.4c-0.4,0.4-0.6,0.6-0.6,0.4c-0.2-0.2-0.4-0.2-0.6-0.6l-1.2-2.1
		c-0.4-0.4-0.4-0.4,0-0.8L241.6,314.3z M227.3,320.5c-1.4-1.4-1.4-1.7-1-2.3l0.4-0.4c0-0.4-0.2-0.8-0.4-0.8c-0.8,1-1.4,1.7-2.1,2.3
		c-0.8,0.8-1.6,1.4-2.5,2.1c0,0.2,0.4,0.6,0.6,0.4l0.6-0.2c0.6-0.6,1-0.6,2.3,1l5.4,5.6c1.2,1.2,1.4,1.4,0.8,2.1l-0.6,0.8
		c0,0.2,0.2,0.4,0.8,0.6c0.8-1,1.4-1.7,2.1-2.5l1.9-1.9c1.2-1.2,2.7-2.5,3.7-3.1c-0.4-0.8-1.2-2.3-1.9-3.3c-0.2,0-0.6,0.4-0.6,0.4
		c0.8,2.7,0.4,3.1-1,4.5c-1.2,1.2-1.4,1.2-1.7,1.2c-0.6,0-1.2-0.4-1.7-1.2L227.3,320.5z M216.9,335.8c-0.4,0.2-0.6,0.4-0.8-0.2
		l-0.6-1.4c-0.4-1.2-0.6-2.1-0.8-2.5c0.4,0.2,1.2,0.8,1.9,1.4l1.5,1c0.4,0.2,0.4,0.4,0,0.6L216.9,335.8z M219,335.6
		c0.6-0.6,0.8-0.6,1-0.4l1.5,1.2c0.8,0.2,1.2,0.6,1.4,0.8c0,0.2,0,0.2-0.4,0.6l-0.4,0.6c-0.2,0.2,0,0.6,0.6,0.8
		c0.6-0.8,1.2-1.4,1.9-2.1c1-0.6,1.9-1.2,2.7-1.7c0-0.4-0.2-0.8-0.4-0.6l-0.8,0.2c-0.8,0.4-1.2,0.2-2.3-0.6l-7.4-4.7
		c-1.4-0.8-1.9-1.4-2.3-1.7h-0.8c0,0,0.2,1.4-0.6,2.1c0.6,0.4,0.6,1.4,1,2.5l1.7,5.2c0.6,1.5,0.8,2.5,1,3.5c0.2,0.8,0,1.2-0.4,1.5
		l-0.4,0.6c0,0.2,0.2,0.4,0.4,0.6c1-0.6,1.2-1.2,1.7-1.7c0.8-0.2,1.5-0.8,2.1-1.2c0-0.4-0.2-0.8-0.4-0.8l-0.6,0.2
		c-0.6,0.4-0.8,0.4-0.8,0.4c-0.2-0.2-0.4-0.4-0.4-0.8l-1-2.3c-0.2-0.4-0.2-0.4,0.2-0.8L219,335.6z M209.7,344.9
		c1.2,1.5,1.2,1.7,0.6,2.5l-0.8,0.6c0,0.2,0,0.6,0.6,0.6c1-0.8,1.9-1.5,2.5-2.1c0.8-0.6,1.7-1.2,2.9-1.9c0-0.4-0.4-0.6-0.6-0.6
		l-0.8,0.4c-0.8,0.4-1.2,0.4-2.1-1.2l-5.6-7.4c-0.4-0.4-0.2-0.6,0.2-1l1-0.6c1.2-1.2,1.9-0.4,3.3,0.4c0,0.2,0.4-0.2,0.4-0.4
		c-0.8-1-1.5-2.5-1.9-3.1c0,0-0.2,0-0.2,0.2h-0.2c0,0.6-0.2,0.8-1.2,1.5l-6.2,4.8c-1.4,0.8-1.5,0.8-1.7,0.6c-0.2,0-0.2,0-0.2,0.2
		c-0.2,0-0.2,0-0.2,0.2c0.2,0.8,1,1.7,1.5,3.3c0.2,0.2,0.6-0.2,0.8-0.4c-0.4-1.5-0.6-2.5,0.4-3.5l1.2-0.8c0.4-0.4,0.6-0.2,0.8,0.2
		L209.7,344.9z M194.4,342c-1.7,1.2-3.3,2.9-3.9,4.8c-0.6,1.7-0.6,3.9,0.8,5.8c1.4,2.3,3.3,3.1,5,3.3c1.9,0.2,4.1-0.4,5.8-1.4
		c1.4-1,2.3-2.3,3.1-3.3c0-0.4-0.4-1.7-1.2-3.1c-0.2,0-0.6,0.2-0.8,0.4c0.2,1.4,0.2,3.5-1.9,4.8c-1.9,1.6-5.2,0.8-7.6-2.7
		c-2.1-3.5-1.2-6.4,1-7.7c1.7-1,3.5-1,4.8,0.6c0.2,0,0.8-0.4,0.6-0.8c-0.8-0.8-1.7-2.3-1.9-2.7C197.9,340.4,196.1,340.8,194.4,342
		L194.4,342z M180.1,360.3c1,2.1,2.1,3.3,3.5,3.5c1.5,0.4,2.9,0,4.3-0.6c1.4-0.8,2.5-2.1,2.9-3.5c0.4-1.7-0.2-3.3-1.2-5l-1.2-1.9
		c-0.6-1.7-1.4-3.3-1.4-3.7c0-0.4,0.4-0.8,0.8-1.2l0.4-0.2c0-0.2-0.2-0.6-0.4-0.6c-0.8,0.2-1.4,0.8-2.1,1c-0.8,0.4-1.4,0.8-2.5,1.2
		c0,0.2,0,0.8,0.4,0.8l0.6-0.2c0.6-0.2,1-0.4,1.4,0c0.4,0.4,1.2,1.7,1.9,3.3l1.4,2.3c1.2,2.5,1.5,4.8-1,6c-2.9,1.5-4.3-0.8-5.2-2.9
		l-2.3-4.3c-1-1.7-0.8-1.9,0-2.5l0.4-0.4c0.2-0.2-0.2-0.4-0.2-0.6c-1,0.6-1.9,1.2-2.9,1.5c-0.8,0.4-1.7,1-2.7,1.2
		c0,0.2,0,0.8,0.4,0.8l0.6-0.2c0.8-0.2,1-0.2,1.7,1.5L180.1,360.3z M171.9,364c-0.6,0.2-0.6,0.2-0.8-0.4l-0.2-1.5
		c0-1.2,0-1.9-0.2-2.7c0.6,0.4,1,1.2,1.5,1.7l1.4,1.4c0.4,0.4,0.2,0.6-0.2,0.8L171.9,364z M174.1,364.2c0.6-0.2,0.8-0.2,1,0l1.4,1.4
		c0.6,0.6,1,1,1,1.2c0,0,0,0.4-0.4,0.6l-0.6,0.4c-0.2,0.2,0,0.4,0.4,0.8c0.8-0.6,1.5-1,2.5-1.4c1-0.4,2.1-0.8,2.9-1.2
		c0-0.4-0.2-0.8-0.2-0.8l-1,0.2c-0.8,0.2-1-0.2-1.9-1.2l-6-6.2c-1.2-1.2-1.6-1.7-1.9-2.3c-0.2-0.2-0.4-0.2-0.6-0.2
		c0,0-0.4,1.2-1.2,1.7c0.2,0.8,0.2,1.5,0.4,2.9l0.4,5.4v3.7c0,0.6-0.2,1-0.6,1.4l-0.8,0.4c0,0.2,0.2,0.6,0.4,0.8
		c1-0.4,1.4-0.8,2.1-1.2c1-0.4,1.5-0.6,2.3-0.8c0-0.2-0.2-0.8-0.2-0.8l-0.8,0.2c-0.6,0-0.8,0-0.8-0.2c0,0-0.2-0.2-0.2-0.6l-0.2-2.5
		c-0.2-0.6-0.2-0.6,0.4-0.8L174.1,364.2z"/>
</g>
</svg>
